<svg xmlns="http://www.w3.org/2000/svg" viewBox="0 0 64 64" width="64" height="64">
  <defs>
    <linearGradient id="shieldGrad" x1="0%" y1="0%" x2="100%" y2="100%">
      <stop offset="0%" style="stop-color:#10B981;stop-opacity:1" />
      <stop offset="100%" style="stop-color:#059669;stop-opacity:1" />
    </linearGradient>
  </defs>
  <rect width="64" height="64" fill="white"/>
  <path d="M32 8 C32 8 22 12 14 15 C11 16 9 19 9 22 L9 38 C9 48 18 56 32 60 C46 56 55 48 55 38 L55 22 C55 19 53 16 50 15 C42 12 32 8 32 8 Z" fill="url(#shieldGrad)"/>
  <path d="M32 12 C32 12 24 15 17 17.5 C15 18 13 20 13 22.5 L13 37 C13 45 20 51 32 54 C44 51 51 45 51 37 L51 22.5 C51 20 49 18 47 17.5 C40 15 32 12 32 12 Z" fill="#FFFFFF" opacity="0.3"/>
  <path d="M24 32 L29 37 L40 26" stroke="#FFFFFF" stroke-width="3" stroke-linecap="round" stroke-linejoin="round" fill="none"/>
</svg>
