<svg xmlns="http://www.w3.org/2000/svg" viewBox="0 0 120 120" width="120" height="120">
  <defs>
    <linearGradient id="primaryGradient" x1="0%" y1="0%" x2="100%" y2="100%">
      <stop offset="0%" style="stop-color:#FF6B35;stop-opacity:1" />
      <stop offset="50%" style="stop-color:#FF8C42;stop-opacity:1" />
      <stop offset="100%" style="stop-color:#F4A261;stop-opacity:1" />
    </linearGradient>

    <linearGradient id="shieldInner" x1="0%" y1="0%" x2="0%" y2="100%">
      <stop offset="0%" style="stop-color:#FFFFFF;stop-opacity:0.25" />
      <stop offset="100%" style="stop-color:#FFFFFF;stop-opacity:0" />
    </linearGradient>

    <linearGradient id="circuitGradient" x1="0%" y1="0%" x2="100%" y2="0%">
      <stop offset="0%" style="stop-color:#FF6B35;stop-opacity:0.6" />
      <stop offset="100%" style="stop-color:#FF8C42;stop-opacity:1" />
    </linearGradient>

    <filter id="dropShadow" x="-30%" y="-30%" width="160%" height="160%">
      <feDropShadow dx="0" dy="3" stdDeviation="5" flood-color="#F4A261" flood-opacity="0.35"/>
    </filter>
  </defs>

  <g transform="translate(10, 5)">

    <g filter="url(#dropShadow)">
      <path d="M50 5 C50 5 32 12 18 16 C13 17.5 10 22 10 27 L10 60 C10 82 28 100 50 112 C72 100 90 82 90 60 L90 27 C90 22 87 17.5 82 16 C68 12 50 5 50 5 Z"
            fill="url(#primaryGradient)"/>
    </g>

    <path d="M50 10 C50 10 34 16 21 19.5 C17 20.5 15 24 15 28 L15 59 C15 78 31 93 50 104 C69 93 85 78 85 59 L85 28 C85 24 83 20.5 79 19.5 C66 16 50 10 50 10 Z"
          fill="url(#shieldInner)"/>

    <path d="M50 16 C50 16 36 21 25 24 C21.5 25 19 28 19 31.5 L19 57 C19 73 32 85 50 95 C68 85 81 73 81 57 L81 31.5 C81 28 78.5 25 75 24 C64 21 50 16 50 16 Z"
          fill="none"
          stroke="#FFFFFF"
          stroke-width="1.5"
          stroke-opacity="0.4"/>

    <g transform="translate(22, 36)">
      <path d="M45 30 L12 30 C6 30 1 25 1 19 C1 13.5 5 9 10 8 C10.5 3.5 14.5 0 19.5 0 C22.8 0 25.7 1.5 27.5 4 C29.3 1.5 32.2 0 35.5 0 C40.5 0 44.5 3.5 45 8 C50 9 54 13.5 54 19 C54 25 49 30 43 30 Z"
            fill="#FFFFFF"
            fill-opacity="0.95"/>
    </g>

    <g transform="translate(38, 46)">
      <rect x="0" y="9" width="22" height="16" rx="3" ry="3" fill="url(#primaryGradient)"/>
      <path d="M4 9 L4 6 C4 2.5 7 0 11 0 C15 0 18 2.5 18 6 L18 9"
            fill="none"
            stroke="url(#primaryGradient)"
            stroke-width="2.5"
            stroke-linecap="round"/>
      <circle cx="11" cy="16" r="2.5" fill="#FFFFFF"/>
      <rect x="9.5" y="16" width="3" height="4.5" rx="1" fill="#FFFFFF"/>
    </g>

    <g fill="#FF8C42">
      <circle cx="0" cy="40" r="3"/>
      <circle cx="5" cy="80" r="2.5"/>
      <circle cx="100" cy="40" r="3"/>
      <circle cx="95" cy="80" r="2.5"/>
      <circle cx="50" cy="0" r="2.5"/>
    </g>

    <g stroke="url(#circuitGradient)" stroke-width="1.5" fill="none" opacity="0.6">
      <path d="M5 35 L0 40"/>
      <path d="M10 72 L5 80"/>
      <path d="M95 35 L100 40"/>
      <path d="M90 72 L95 80"/>
      <path d="M50 5 L50 0"/>
    </g>

  </g>
</svg>
